<svg width="27" height="27" viewBox="0 0 27 27" fill="none" xmlns="http://www.w3.org/2000/svg">
<path d="M19.75 1H7.25C3.79822 1 1 3.79822 1 7.25V19.75C1 23.2018 3.79822 26 7.25 26H19.75C23.2018 26 26 23.2018 26 19.75V7.25C26 3.79822 23.2018 1 19.75 1Z" stroke="white" stroke-width="2" stroke-linecap="round" stroke-linejoin="round"/>
<path d="M18.5006 12.7126C18.6549 13.7529 18.4772 14.8154 17.9928 15.7489C17.5084 16.6824 16.742 17.4394 15.8026 17.9122C14.8632 18.3851 13.7987 18.5496 12.7603 18.3825C11.722 18.2155 10.7628 17.7252 10.0192 16.9816C9.27551 16.2379 8.78528 15.2787 8.61819 14.2404C8.45111 13.2021 8.61569 12.1375 9.08852 11.1981C9.56134 10.2587 10.3183 9.49231 11.2518 9.00793C12.1853 8.52356 13.2478 8.34587 14.2881 8.50013C15.3493 8.65749 16.3317 9.15196 17.0902 9.91052C17.8488 10.6691 18.3433 11.6515 18.5006 12.7126Z" stroke="white" stroke-width="2" stroke-linecap="round" stroke-linejoin="round"/>
<path d="M20.375 6.625H20.3875" stroke="white" stroke-width="2" stroke-linecap="round" stroke-linejoin="round"/>
</svg>
