<svg width="27" height="29" viewBox="0 0 27 29" fill="none" xmlns="http://www.w3.org/2000/svg">
<path d="M9.97436 24.1113C3.5641 26.0344 3.5641 20.9061 1 20.2651M18.9487 27.9574V22.9959C18.9968 22.3846 18.9142 21.77 18.7064 21.1931C18.4986 20.6161 18.1704 20.09 17.7436 19.6497C21.7692 19.201 26 17.6754 26 10.6754C25.9997 8.88541 25.3111 7.16409 24.0769 5.86768C24.6614 4.30167 24.62 2.5707 23.9615 1.03435C23.9615 1.03435 22.4487 0.585632 18.9487 2.93179C16.0103 2.1354 12.9128 2.1354 9.97436 2.93179C6.47436 0.585632 4.96154 1.03435 4.96154 1.03435C4.30305 2.5707 4.26172 4.30167 4.84615 5.86768C3.60273 7.17371 2.91349 8.91059 2.92308 10.7138C2.92308 17.6626 7.15385 19.1882 11.1795 19.6882C10.7577 20.1241 10.4324 20.6438 10.2248 21.2137C10.0171 21.7836 9.93181 22.3908 9.97436 22.9959V27.9574" stroke="white" stroke-width="2" stroke-linecap="round" stroke-linejoin="round"/>
</svg>
